<svg width="180" height="180" viewBox="0 0 180 180" fill="none" xmlns="http://www.w3.org/2000/svg">
<rect width="180" height="180" rx="11.25" fill="#090A0C"/>
<path fill-rule="evenodd" clip-rule="evenodd" d="M39.6046 120.561L74.5458 146.076L78.3079 144.817L82.4481 152.278L73.1107 154.688L32.4759 124.724L28.125 73.4725L34.825 66.4648L39.0133 74.0109L36.0445 76.6995L39.6033 120.559L39.6046 120.561ZM137.584 120.561L102.643 146.076L98.8809 144.817L94.7407 152.278L104.077 154.688L144.712 124.724L149.062 73.4725L142.363 66.4648L138.174 74.0109L141.143 76.6995L137.584 120.559V120.561ZM94.1297 78.2529L56.9773 78.3022L52.4921 70.0887L98.6345 70.1367L103.574 61.3468H37.3219L42.9663 71.1998L46.6285 77.5906L52.1829 86.8267L79.387 86.8027L71.2395 101.401L65.0816 94.8822L56.5658 94.9391L61.5794 103.686L65.4474 110.44L70.8355 119.835L94.1309 78.2517L94.1297 78.2529ZM108.159 86.7167H115.252C119.158 80.4207 121.079 76.2684 124.979 69.9648H117.701L108.158 86.7167H108.159ZM112.293 95.2008H103.679C96.1043 107.42 87.8608 124.402 80.3084 136.636L75.0348 128.095L113.043 61.3468H139.131L120.614 95.202H112.293V95.2008ZM118.068 103.345L89.562 153.372L84.7566 144.878L108.18 103.345H118.068ZM89.0865 33.7283L127.986 52.2586L128.781 56.2365H137.149L134.569 46.7185L89.0865 25.3125L43.5304 46.7943L40.9115 56.2352H49.3743L50.1824 52.2574L89.0865 33.727V33.7283Z" fill="#6DE2F7"/>
</svg>
