<svg width="192" height="192" viewBox="0 0 192 192" fill="none" xmlns="http://www.w3.org/2000/svg">
<rect width="192" height="192" rx="12" fill="#090A0C"/>
<path fill-rule="evenodd" clip-rule="evenodd" d="M42.2449 128.598L79.5155 155.814L83.5284 154.471L87.9446 162.43L77.9848 165L34.6409 133.039L30 78.3706L37.1467 70.8958L41.6142 78.945L38.4475 81.8128L42.2435 128.597L42.2449 128.598ZM146.756 128.598L109.486 155.814L105.473 154.471L101.057 162.43L111.015 165L154.359 133.039L159 78.3706L151.853 70.8958L147.386 78.945L150.553 81.8128L146.756 128.597V128.598ZM100.405 83.4698L60.7757 83.5224L55.9916 74.7613L105.21 74.8125L110.479 65.4366H39.8101L45.8307 75.9464L49.7371 82.7633L55.6618 92.6152L84.6794 92.5895L75.9888 108.161L69.4203 101.208L60.3369 101.268L65.6847 110.598L69.8106 117.802L75.5579 127.824L100.406 83.4685L100.405 83.4698ZM115.37 92.4979H122.936C127.102 85.7821 129.151 81.353 133.311 74.6292H125.548L115.368 92.4979H115.37ZM119.779 101.547H110.591C102.511 114.581 93.7182 132.695 85.6623 145.745L80.0372 136.635L120.58 65.4366H148.407L128.655 101.549H119.779V101.547ZM125.939 110.234L95.5328 163.596L90.407 154.536L115.392 110.234H125.939ZM95.0256 35.9768L136.518 55.7425L137.367 59.9855H146.293L143.54 49.833L95.0256 27L46.4325 49.9139L43.639 59.9842H52.6659L53.5279 55.7412L95.0256 35.9755V35.9768Z" fill="#6DE2F7"/>
</svg>
