<svg width="32" height="32" viewBox="0 0 32 32" fill="none" xmlns="http://www.w3.org/2000/svg">
<rect width="32" height="32" rx="2" fill="#090A0C"/>
<path fill-rule="evenodd" clip-rule="evenodd" d="M7.04081 21.433L13.2526 25.969L13.9214 25.7452L14.6574 27.0717L12.9975 27.5L5.77349 22.1732L5 13.0618L6.19111 11.816L6.93569 13.1575L6.40792 13.6355L7.04059 21.4328L7.04081 21.433ZM24.4594 21.433L18.2476 25.969L17.5788 25.7452L16.8428 27.0717L18.5025 27.5L25.7265 22.1732L26.5 13.0618L25.3089 11.816L24.5643 13.1575L25.0921 13.6355L24.4594 21.4328V21.433ZM16.7342 13.9116L10.1293 13.9204L9.33193 12.4602L17.535 12.4688L18.4132 10.9061H6.63501L7.63844 12.6577L8.28952 13.7939L9.27696 15.4359L14.1132 15.4316L12.6648 18.0268L11.5701 16.868L10.0561 16.8781L10.9475 18.4331L11.6351 19.6337L12.593 21.304L16.7344 13.9114L16.7342 13.9116ZM19.2283 15.4163H20.4893C21.1837 14.297 21.5251 13.5588 22.2184 12.4382H20.9246L19.2281 15.4163H19.2283ZM19.9632 16.9246H18.4318C17.0852 19.0969 15.6197 22.1159 14.277 24.2909L13.3395 22.7725L20.0966 10.9061H24.7345L21.4425 16.9248H19.9632V16.9246ZM20.9899 18.3724L15.9221 27.2661L15.0678 25.756L19.232 18.3724H20.9899ZM15.8376 5.99614L22.753 9.29042L22.8945 9.99759H24.3821L23.9233 8.30551L15.8376 4.5L7.73874 8.31899L7.27316 9.99737H8.77765L8.92131 9.2902L15.8376 5.99591V5.99614Z" fill="#6DE2F7"/>
</svg>
