<svg width="237" height="56" viewBox="0 0 237 56" fill="none" xmlns="http://www.w3.org/2000/svg">
<path fill-rule="evenodd" clip-rule="evenodd" d="M4.9901 40.607L20.1789 51.4849L21.8142 50.9482L23.614 54.1292L19.5551 55.1564L1.8913 42.3821L0 20.532L2.91246 17.5444L4.73308 20.7616L3.44258 21.9078L4.98957 40.6065L4.9901 40.607ZM47.5813 40.607L32.3926 51.4849L30.7572 50.9482L28.9575 54.1292L33.0159 55.1564L50.6796 42.3821L52.5709 20.532L49.6585 17.5444L47.8378 20.7616L49.1283 21.9078L47.5813 40.6065V40.607ZM28.6919 22.5701L12.5419 22.5911L10.5923 19.0894L30.6501 19.1099L32.7974 15.3625H3.99787L6.45142 19.5631L8.04339 22.2877L10.4579 26.2253L22.2833 26.2151L18.7417 32.4386L16.0648 29.6596L12.3631 29.6839L14.5425 33.4129L16.2239 36.2922L18.566 40.2977L28.6924 22.5695L28.6919 22.5701ZM34.7904 26.1784H37.8737C39.5717 23.4942 40.4065 21.724 42.1018 19.0366H38.9382L34.7899 26.1784H34.7904ZM36.5875 29.7954H32.8429C29.5503 35.0048 25.9669 42.2447 22.6838 47.4606L20.3915 43.8193L36.9136 15.3625H48.2539L40.2046 29.796H36.5875V29.7954ZM39.0978 33.2674L26.7063 54.5954L24.6174 50.9741L34.7995 33.2674H39.0978ZM26.4996 3.58789L43.4089 11.4879L43.7548 13.1838H47.3923L46.2705 9.12599L26.4996 0L6.69667 9.15833L5.55824 13.1832H9.23697L9.58824 11.4874L26.4996 3.58735V3.58789Z" fill="white"/>
<path d="M228.53 36.1949V23.095H223.426V19.8203H237V23.095H231.923V36.1949H228.53ZM206.35 36.1949V32.9201H216.53V29.6454H206.35V19.8212H219.924V23.096H209.744V26.3707H219.924V36.1949H206.35ZM189.274 36.1949V19.8203H202.848V36.1949H199.455V29.6454H192.668V36.1949H189.275H189.274ZM199.454 26.3707V23.096H192.667V26.3707H199.454ZM172.198 36.1949V19.8203H175.591V32.9201H185.771V36.1949H172.197H172.198ZM155.121 36.1949V19.8203H168.695V29.6445H158.515V36.1939H155.122L155.121 36.1949ZM165.302 26.3707V23.096H158.515V26.3707H165.302ZM132.941 36.1949V19.8203H136.334V32.9201H146.514V36.1949H132.94H132.941ZM115.865 36.1949V19.8203H129.439V23.095H119.259V26.3698H129.439V29.6445H119.259V32.9192H129.439V36.1939H115.865V36.1949ZM98.7888 36.1949V19.8203H112.363V23.095H102.183V26.3698H112.363V29.6445H102.183V32.9192H112.363V36.1939H98.7888V36.1949ZM86.8167 36.1949V23.095H81.7128V19.8203H95.2872V23.095H90.2101V36.1949H86.8167ZM64.6367 36.1949V32.9201H74.8168V29.6454H64.6367V19.8212H78.2112V23.096H68.0301V26.3707H78.2102V36.1949H64.6367Z" fill="#F6F6F6"/>
</svg>
