<svg width="160" height="119" viewBox="0 0 160 119" fill="none" xmlns="http://www.w3.org/2000/svg">
<g clip-path="url(#clip0_307_1945)">
<path d="M152.137 119V106.365H147.399V103.207H160V106.365H155.287V119H152.137ZM131.548 119V115.841H140.998V112.683H131.548V103.208H144.149V106.366H134.699V109.525H144.149V119H131.548ZM115.697 119V103.207H128.298V119H125.148V112.683H118.848V119H115.698H115.697ZM125.147 109.525V106.366H118.847V109.525H125.147ZM99.8457 119V103.207H102.996V115.841H112.446V119H99.8449H99.8457ZM83.9937 119V103.207H96.5944V112.682H87.1445V118.999H83.9946L83.9937 119ZM93.4445 109.525V106.366H87.1445V109.525H93.4445ZM63.4047 119V103.207H66.5546V115.841H76.0045V119H63.4038H63.4047ZM47.5535 119V103.207H60.1543V106.365H50.7044V109.524H60.1543V112.682H50.7044V115.841H60.1543V118.999H47.5535V119ZM31.7023 119V103.207H44.3031V106.365H34.8532V109.524H44.3031V112.682H34.8532V115.841H44.3031V118.999H31.7023V119ZM20.589 119V106.365H15.8512V103.207H28.4519V106.365H23.739V119H20.589ZM0 119V115.841H9.44989V112.683H0V103.208H12.6007V106.366H3.14996V109.525H12.5999V119H0Z" fill="white"/>
<path fill-rule="evenodd" clip-rule="evenodd" d="M44.6417 67.174L69.86 85.1687L72.5752 84.2809L75.5634 89.5431L68.8243 91.2422L39.4966 70.1104L36.3564 33.965L41.1921 29.0228L44.2149 34.3447L42.0723 36.2408L44.6408 67.1731L44.6417 67.174ZM115.357 67.174L90.1388 85.1687L87.4236 84.2809L84.4354 89.5431L91.1736 91.2422L120.501 70.1104L123.641 33.965L118.806 29.0228L115.783 34.3447L117.926 36.2408L115.357 67.1731V67.174ZM83.9944 37.3364L57.1802 37.3712L53.9431 31.5786L87.2457 31.6124L90.8109 25.4133H42.9942L47.0679 32.3622L49.7111 36.8693L53.7199 43.3831L73.3541 43.3662L67.4738 53.6615L63.0293 49.0643L56.8832 49.1044L60.5017 55.2732L63.2934 60.0362L67.1822 66.6623L83.9953 37.3355L83.9944 37.3364ZM94.12 43.3055H99.2392C102.058 38.8653 103.445 35.9369 106.259 31.4912H101.007L94.1191 43.3055H94.12ZM97.1037 49.2889H90.8865C85.4196 57.9065 79.47 69.8831 74.0191 78.5114L70.213 72.4879L97.6452 25.4133H116.474L103.109 49.2898H97.1037V49.2889ZM101.272 55.0325L80.6978 90.3142L77.2295 84.3236L94.1351 55.0325H101.272ZM80.3546 5.93525L108.43 19.0038L109.004 21.8092H115.043L113.181 15.0966L80.3546 0L47.4751 15.1501L45.585 21.8083H51.6928L52.2761 19.003L80.3546 5.93435V5.93525Z" fill="white"/>
</g>
<defs>
<clipPath id="clip0_307_1945">
<rect width="160" height="119" fill="white"/>
</clipPath>
</defs>
</svg>
